<?xml version="1.0" standalone="no"?>
<!DOCTYPE svg PUBLIC "-//W3C//DTD SVG 20010904//EN"
 "http://www.w3.org/TR/2001/REC-SVG-20010904/DTD/svg10.dtd">
<svg version="1.0" xmlns="http://www.w3.org/2000/svg"
 width="700.000000pt" height="700.000000pt" viewBox="0 0 700.000000 700.000000"
 preserveAspectRatio="xMidYMid meet">
<metadata>
Created by potrace 1.11, written by Peter Selinger 2001-2013
</metadata>
<g transform="translate(0.000000,700.000000) scale(0.100000,-0.100000)"
fill="#000000" stroke="none">
<path d="M2965 6763 c-86 -8 -214 -35 -308 -64 -623 -191 -1096 -746 -1203
-1412 -13 -81 -17 -204 -21 -592 l-4 -490 -24 -56 c-74 -168 -46 -381 66 -503
65 -71 131 -100 211 -93 l58 5 11 -41 c97 -372 310 -696 609 -928 83 -65 218
-150 293 -185 20 -10 37 -21 37 -24 0 -4 -35 -13 -77 -20 -847 -134 -1537
-760 -1748 -1585 -18 -71 -38 -165 -45 -208 -19 -128 -70 -117 546 -117 462 0
524 2 538 16 9 8 16 22 16 30 0 11 15 14 63 14 58 0 63 -2 79 -30 l17 -30 220
0 c186 0 222 2 235 16 9 8 16 22 16 30 0 10 14 14 58 14 53 0 58 -2 74 -30
l17 -30 1620 0 c1842 0 1658 -10 1646 89 -23 191 -107 462 -203 653 -309 615
-885 1044 -1557 1162 l-130 23 85 43 c259 130 501 350 653 592 98 156 173 332
217 505 l10 41 58 -5 c77 -7 145 22 207 88 60 64 92 137 107 237 20 139 -23
289 -110 384 l-40 43 -5 455 c-4 406 -7 467 -26 567 -133 714 -664 1268 -1357
1414 -89 19 -136 22 -484 24 -212 1 -403 1 -425 -2z m764 -568 c16 -8 31 -22
35 -30 3 -9 6 -166 6 -349 l0 -333 -26 -24 c-22 -21 -36 -24 -130 -27 l-104
-4 0 391 0 391 95 0 c65 0 105 -5 124 -15z m-917 -863 c7 -17 159 -142 253
-207 55 -38 152 -99 215 -136 l115 -66 3 -276 2 -277 -74 0 -73 0 -5 83 c-7
132 -71 224 -186 267 -53 20 -70 21 -426 18 l-371 -3 -58 -27 c-155 -73 -231
-187 -245 -371 l-7 -91 -45 -11 c-25 -6 -58 -15 -73 -19 l-28 -7 6 83 c9 109
31 265 51 354 l16 72 126 41 c146 48 279 109 384 176 96 62 258 229 328 337
44 69 58 83 72 77 9 -5 18 -12 20 -17z m255 -738 c72 -57 74 -68 71 -339 -3
-239 -3 -240 -31 -296 -50 -102 -142 -169 -260 -189 -100 -18 -489 -8 -545 13
-110 42 -188 130 -218 246 -12 50 -15 99 -12 225 4 151 5 164 30 212 15 28 48
70 73 92 80 70 85 71 492 69 l361 -2 39 -31z m333 -724 c0 -386 0 -390 -20
-390 -34 0 -80 29 -100 63 -16 25 -20 50 -20 114 0 89 -12 113 -55 113 -43 0
-55 -24 -55 -112 0 -112 15 -153 75 -213 48 -49 102 -75 154 -75 21 0 21 -2
21 -211 l0 -212 -50 6 c-66 8 -126 36 -173 81 -41 39 -62 44 -91 23 -76 -55
89 -195 249 -212 l65 -7 0 -244 c0 -133 -3 -245 -8 -248 -13 -8 -232 13 -317
30 -511 103 -958 477 -1150 963 -77 194 -115 407 -115 640 l0 119 65 16 c35 9
68 16 73 16 5 0 14 -35 20 -77 33 -211 189 -367 392 -393 98 -12 406 -12 495
0 88 13 196 64 254 120 101 100 141 204 141 371 l0 109 75 0 75 0 0 -390z
m-1716 364 c14 -5 16 -31 16 -183 0 -97 5 -221 10 -275 11 -111 9 -116 -48
-116 -66 0 -119 47 -164 146 -17 39 -22 67 -22 139 1 136 46 234 127 274 45
22 56 24 81 15z m1370 -1965 c55 -11 142 -23 191 -25 50 -3 105 -7 123 -10
l32 -5 -2 -207 -3 -207 -55 4 c-235 15 -453 198 -515 431 -25 92 -25 92 56 64
39 -13 117 -33 173 -45z m-326 -83 c33 -105 86 -190 172 -276 118 -118 240
-178 410 -202 l80 -11 0 -79 0 -78 -49 0 c-163 0 -378 90 -524 220 -119 106
-224 290 -252 441 l-7 36 59 10 c32 6 65 11 73 12 11 1 22 -22 38 -73z m-269
-22 c7 -26 8 -50 4 -54 -4 -4 -39 -15 -78 -24 -176 -43 -424 -158 -606 -282
-307 -206 -536 -467 -707 -803 -67 -133 -72 -131 -15 9 188 461 553 848 1008
1066 105 51 332 134 366 134 11 0 20 -15 28 -46z"/>
<path d="M2589 4561 c-80 -14 -154 -32 -163 -40 -32 -27 -10 -91 33 -91 16 0
279 44 328 55 13 3 30 16 39 30 15 23 15 27 0 50 -21 32 -44 31 -237 -4z"/>
<path d="M2579 4286 c-69 -47 -91 -151 -46 -217 72 -107 202 -106 275 1 31 45
28 130 -6 177 -46 65 -156 84 -223 39z"/>
</g>
</svg>
